# xmcd
#
# Track frame offsets: 
#        150
#        12965
#        27339
#        35540
#        45477
#        54659
#        67264
#        89661
#        99094
#        112320
#        124482
#        134928
#        147725
#        158884
#        169355
#        188807
#        200285
#
# Disc length: 2851 seconds
#
# Revision: 1
# Processed by: cddbd v1.5.1PL0 Copyright (c) Steve Scherf et al.
# Submitted via: ExactAudioCopy v0.95b2
#
DISCID=0b0b2111
DTITLE=Robert Normann - The definitive collection, vol 4
DYEAR=2005
DGENRE=Jazz
TTITLE0=The Harry Lime theme 1
TTITLE1=Junkers samba
TTITLE2=Säkkijärven polka 1
TTITLE3=Gammel polka
TTITLE4=Dinora 1
TTITLE5=Handkerchief fox
TTITLE6=Kjærlighetssmil
TTITLE7=Dialog
TTITLE8=Elvira
TTITLE9=Mariposita
TTITLE10=My prayer
TTITLE11=When the Lilacs bloom again
TTITLE12=Gitarpolka
TTITLE13=Dinora 2
TTITLE14=Julepotpourri
TTITLE15=Säkkijärven polka 2
TTITLE16=The Harry Lime theme 2
EXTD=YEAR: 2005
EXTT0=
EXTT1=
EXTT2=
EXTT3=
EXTT4=
EXTT5=
EXTT6=
EXTT7=
EXTT8=
EXTT9=
EXTT10=
EXTT11=
EXTT12=
EXTT13=
EXTT14=
EXTT15=
EXTT16=
PLAYORDER=
